<svg xmlns="http://www.w3.org/2000/svg" viewBox="0 0 166.88 167.35"><defs><style>.cls-1{fill:#fff;}.cls-2{fill:#090909;}.cls-3{fill:#fdfdfd;}</style></defs><title>st2de</title><g id="圖層_2" data-name="圖層 2"><path class="cls-1" d="M83.44,167.22c-23.11,0-46.22-.09-69.33,0A14,14,0,0,1,0,153.2C.17,103.85.2,71.26,0,21.91,0,17.73,14.63,0,18.8.06c52.22.16,77.77.12,130,0C153,0,166.86,10.4,166.85,14.58c-.16,49.35-.14,89.27,0,138.62a14,14,0,0,1-14.08,14.07C129.66,167.13,106.55,167.22,83.44,167.22Z"/></g><g id="圖層_1" data-name="圖層 1"><path d="M153.92,167.31H77.86c-21.21,0-42.42.1-63.63,0C4.5,167.19.12,163,.09,153.42q-.19-69.6,0-139.2C.11,4.56,4.38.28,14,.21,36.21,0,58.39.15,82.82.15,73,10.14,64.5,19,55.82,27.62c-2.21,2.2-5.08.37-7.63.43-11.55.26-20.34,8.88-20.24,20A20.16,20.16,0,0,0,47.63,67.77c11,.09,20.43-8.9,19.73-20.35-.35-5.82,1.82-9.2,5.46-12.79,9.67-9.54,19.32-19.11,28.68-29,3.65-3.84,7.3-5.86,12.85-5.66,12.58.44,25.19,0,37.78.18,9.82.12,14.59,4.16,14.62,13.5.2,46.31.09,92.63.09,138.67-9.19-8.4-18.39-16.56-27.18-25.12-1.17-1.14-.36-4.36-.38-6.62-.14-12.24-8.84-21.17-20.38-20.89a19.87,19.87,0,0,0-19.31,19.94,19.45,19.45,0,0,0,20.59,19.51c5.29-.28,8.58,1.16,11.91,4.92,5.94,6.68,12.34,13,18.53,19.41C151.32,164.22,151.94,165,153.92,167.31Z"/><path class="cls-2" d="M55.92,47.6c-1,5.34-3.69,8.57-8.8,8.12-4.43-.39-7.4-3.31-7.15-8,.27-5,3.41-7.94,8.5-7.64C53.14,40.38,55.07,43.8,55.92,47.6Z"/><path class="cls-2" d="M119.16,111.48c5.09.82,8.08,3.34,8.08,7.9,0,5-3.09,8.12-8.15,8-4.51-.13-7.44-3-7.5-7.63C111.51,114.51,115,112.31,119.16,111.48Z"/><path class="cls-3" d="M116.79,67.68c-4-1.64-6.47,1-9.12,3.72C95.57,83.68,83.45,95.94,71.16,108a11.25,11.25,0,0,0-3.76,9.48c.47,12.58-7.88,21.67-19.23,21.9a20.13,20.13,0,0,1-20.23-20.13C28.11,107.73,37,99.42,49.64,100a11.12,11.12,0,0,0,9.48-3.67C71.41,83.74,83.88,71.35,96.37,59a10.49,10.49,0,0,0,3.47-8.62c-.34-13.55,7.77-22.36,19.7-22.29a19.9,19.9,0,0,1,19.74,19.54C139.45,59.38,130.16,67.77,116.79,67.68Z"/><path class="cls-2" d="M127.54,47.24c-.83,5.47-3.4,8.72-8.51,8.49-4.5-.21-7.47-3.08-7.42-7.7.06-5.05,3.14-8,8.22-7.92C124.57,40.17,126.49,43.62,127.54,47.24Z"/><path class="cls-2" d="M48.16,127.55c-4.56-.38-7.77-2.63-8.17-7.17-.44-5,2.45-8.36,7.47-8.61s8.13,2.92,8.14,7.95C55.61,124.31,52.54,126.74,48.16,127.55Z"/></g></svg>